HIERARCHY
ROOT Hips
{
	OFFSET -21.947001 39.810204 44.525997
	CHANNELS 6 Xposition Yposition Zposition Zrotation Xrotation Yrotation
	JOINT Chest
	{
		OFFSET -0.201599 0.334099 6.453201
		CHANNELS 6 Xposition Yposition Zposition Zrotation Xrotation Yrotation
		JOINT Chest2
		{
			OFFSET 0.000000 0.000000 3.568001
			CHANNELS 6 Xposition Yposition Zposition Zrotation Xrotation Yrotation
			JOINT Neck
			{
				OFFSET 0.000000 0.000000 8.296402
				CHANNELS 6 Xposition Yposition Zposition Zrotation Xrotation Yrotation
				JOINT Head
				{
					OFFSET 0.000000 0.000000 2.173901
					CHANNELS 6 Xposition Yposition Zposition Zrotation Xrotation Yrotation
					End Site
					{
						OFFSET 0.000000 0.000000 7.891998
					}
				}
			}
			JOINT LeftCollar
			{
				OFFSET 1.927601 0.221401 6.049000
				CHANNELS 6 Xposition Yposition Zposition Zrotation Xrotation Yrotation
				JOINT LeftShoulder
				{
					OFFSET 4.959700 0.000000 0.000000
					CHANNELS 6 Xposition Yposition Zposition Zrotation Xrotation Yrotation
					JOINT LeftElbow
					{
						OFFSET 0.000000 0.000000 -8.654202
						CHANNELS 6 Xposition Yposition Zposition Zrotation Xrotation Yrotation
						JOINT LeftWrist
						{
							OFFSET 0.000000 0.000000 -13.864101
							CHANNELS 6 Xposition Yposition Zposition Zrotation Xrotation Yrotation
							End Site
							{
								OFFSET 0.000000 0.000000 -2.173901
							}
						}
					}
				}
			}
			JOINT RightCollar
			{
				OFFSET -3.155701 -0.764999 6.687801
				CHANNELS 6 Xposition Yposition Zposition Zrotation Xrotation Yrotation
				JOINT RightShoulder
				{
					OFFSET -3.592899 0.000000 0.000000
					CHANNELS 6 Xposition Yposition Zposition Zrotation Xrotation Yrotation
					JOINT RightElbow
					{
						OFFSET 0.000000 0.000000 -10.352398
						CHANNELS 6 Xposition Yposition Zposition Zrotation Xrotation Yrotation
						JOINT RightWrist
						{
							OFFSET 0.000000 0.000000 -12.750301
							CHANNELS 6 Xposition Yposition Zposition Zrotation Xrotation Yrotation
							End Site
							{
								OFFSET 0.000000 0.000000 -2.173901
							}
						}
					}
				}
			}
		}
	}
	JOINT LeftHip
	{
		OFFSET 2.460600 -0.518101 -2.735500
		CHANNELS 6 Xposition Yposition Zposition Zrotation Xrotation Yrotation
		JOINT LeftKnee
		{
			OFFSET 0.000000 -0.000004 -17.005899
			CHANNELS 6 Xposition Yposition Zposition Zrotation Xrotation Yrotation
			JOINT LeftAnkle
			{
				OFFSET 0.000000 0.000000 -19.194401
				CHANNELS 6 Xposition Yposition Zposition Zrotation Xrotation Yrotation
				End Site
				{
					OFFSET 0.000000 -8.134600 0.000000
				}
			}
		}
	}
	JOINT RightHip
	{
		OFFSET -3.115499 -0.679600 -2.320301
		CHANNELS 6 Xposition Yposition Zposition Zrotation Xrotation Yrotation
		JOINT RightKnee
		{
			OFFSET 0.000000 -0.000004 -17.680401
			CHANNELS 6 Xposition Yposition Zposition Zrotation Xrotation Yrotation
			JOINT RightAnkle
			{
				OFFSET 0.000000 0.000000 -16.993797
				CHANNELS 6 Xposition Yposition Zposition Zrotation Xrotation Yrotation
				End Site
				{
					OFFSET 0.000000 -8.842300 0.000000
				}
			}
		}
	}
}
MOTION
Frames: 9
Frame Time: 0.041667
-26.698502 13.128006 44.764889 2453.633663 -25.451238 -4.082926 -0.201599 0.334095 6.453201 18.774733 16.511559 6.153774 0.000002 -0.000002 3.567999 -5.284097 4.267603 -0.115034 0.000000 0.000000 8.296396 230.850067 -179.947686 165.573129 -0.000002 -0.000001 2.173898 2.724253 2.949972 3.121193 1.927599 0.221404 6.048997 -18.583355 0.121038 -5.411212 4.959700 0.000004 -0.000008 128.656025 196.873154 135.374199 -0.000004 0.000005 -8.654195 -34.314027 -17.746976 6.512833 0.000003 0.000000 -13.864103 4073.200469 -156.248268 162.313408 -3.155707 -0.765001 6.687799 44.979654 3.182453 3.145903 -3.592901 -0.000007 0.000002 -132.890264 188.322918 220.035623 0.000007 -0.000001 -10.352406 -297.969024 -16.430930 -350.546509 -0.000005 0.000006 -12.750299 197.862876 147.938537 -149.855279 2.460602 -0.518100 -2.735500 -442.655654 48.013897 37.118646 -0.000001 -0.000008 -17.005896 156.275097 189.940676 -72.050539 -0.000000 0.000002 -19.194405 633.115315 167.049898 249.539213 -3.115500 -0.679600 -2.320301 -362.526770 23.534226 -0.931551 -0.000005 0.000000 -17.680401 -477.564368 154.544191 -199.141815 0.000003 0.000004 -16.993795 1044.459305 20.539151 -360.026156
-26.674301 13.122303 44.767593 2453.858130 -25.430731 -4.079047 -0.201603 0.334100 6.453209 18.547240 16.549320 6.223892 0.000000 0.000008 3.567997 -5.247638 4.241542 -0.114736 0.000008 0.000004 8.296390 230.778268 -179.911445 165.566217 0.000002 -0.000001 2.173907 2.716821 2.921486 3.155386 1.927599 0.221406 6.048996 -18.620841 0.076475 -5.364895 4.959705 -0.000005 0.000001 128.655711 196.814005 135.395646 0.000001 0.000002 -8.654201 -34.336966 -17.723400 6.499960 -0.000007 -0.000003 -13.864092 4073.162438 -156.245809 162.259695 -3.155706 -0.764997 6.687788 44.935091 3.155656 3.179357 -3.592901 -0.000003 0.000003 -132.829735 188.320282 219.999109 0.000007 0.000003 -10.352412 -297.975854 -16.440299 -350.563639 -0.000004 0.000006 -12.750299 197.812892 147.912446 -149.813834 2.460596 -0.518098 -2.735496 -442.580904 47.993847 36.952488 -0.000000 -0.000005 -17.005901 156.226534 189.880092 -72.045771 -0.000008 0.000002 -19.194405 632.943139 167.020009 249.679942 -3.115502 -0.679593 -2.320302 -362.643403 23.483041 -0.944621 -0.000009 -0.000001 -17.680401 -477.695180 154.442106 -199.059129 -0.000000 0.000001 -16.993795 1044.575691 20.493839 -360.105851
-26.647694 13.117508 44.770393 2454.094181 -25.406016 -4.066447 -0.201601 0.334097 6.453197 18.312786 16.585678 6.286537 0.000002 0.000006 3.567996 -5.207439 4.209148 -0.114657 -0.000005 0.000001 8.296397 230.700076 -179.881679 165.560507 0.000000 0.000001 2.173900 2.703449 2.886849 3.185964 1.927597 0.221406 6.048995 -18.669590 0.036921 -5.301357 4.959701 0.000002 0.000000 128.650042 196.743312 135.399676 0.000002 0.000004 -8.654202 -34.398120 -17.706827 6.476770 -0.000004 0.000004 -13.864108 4073.130965 -156.255645 162.201010 -3.155706 -0.765002 6.687799 44.885889 3.136978 3.216494 -3.592903 -0.000006 0.000000 -132.792224 188.324243 219.961926 -0.000004 -0.000006 -10.352400 -298.044703 -16.470409 -350.599402 0.000001 0.000002 -12.750300 197.829422 147.884169 -149.761050 2.460598 -0.518098 -2.735502 -442.435885 47.989056 36.726231 -0.000000 -0.000000 -17.005901 156.089015 189.669463 -72.036263 -0.000010 0.000002 -19.194407 632.783750 167.072137 249.662211 -3.115498 -0.679590 -2.320304 -362.740965 23.425240 -0.964329 -0.000004 -0.000003 -17.680405 -477.848285 154.346074 -198.982125 0.000006 0.000004 -16.993793 1044.711421 20.428619 -360.223166
-26.619608 13.113403 44.772995 2454.326736 -25.376980 -4.046461 -0.201595 0.334098 6.453200 18.091694 16.617176 6.339567 0.000003 0.000005 3.568001 -5.171991 4.172555 -0.115371 0.000002 0.000004 8.296393 230.620490 -179.856940 165.554961 0.000002 -0.000001 2.173903 2.685349 2.870255 3.208151 1.927603 0.221403 6.048996 -18.722336 0.011814 -5.224686 4.959702 -0.000001 -0.000003 128.634401 196.665749 135.377232 0.000000 0.000007 -8.654205 -34.483142 -17.696322 6.450362 -0.000002 0.000003 -13.864098 4073.116977 -156.276873 162.138295 -3.155703 -0.765004 6.687798 44.846728 3.136310 3.239286 -3.592901 -0.000005 0.000001 -132.791978 188.333396 219.943088 0.000004 -0.000003 -10.352403 -298.158029 -16.519070 -350.647459 -0.000008 0.000002 -12.750304 197.893885 147.856616 -149.702966 2.460600 -0.518100 -2.735501 -442.240378 48.000391 36.468730 -0.000002 -0.000007 -17.005901 155.895448 189.349318 -72.035860 -0.000007 -0.000003 -19.194399 632.529011 167.100086 249.547710 -3.115495 -0.679597 -2.320307 -362.808857 23.364518 -0.989583 -0.000006 -0.000005 -17.680401 -478.019969 154.268756 -198.914766 0.000002 0.000004 -16.993793 1044.841030 20.357947 -360.338323
-26.591200 13.110207 44.774887 2454.547050 -25.341966 -4.018878 -0.201595 0.334098 6.453206 17.885503 16.638107 6.387750 -0.000002 0.000002 3.567997 -5.139145 4.133793 -0.116250 -0.000002 -0.000003 8.296389 230.545522 -179.832201 165.545713 -0.000002 -0.000001 2.173904 2.666163 2.840038 3.228150 1.927599 0.221401 6.048992 -18.777005 0.010468 -5.143650 4.959702 -0.000004 -0.000001 128.614538 196.589783 135.324926 0.000003 0.000002 -8.654200 -34.560648 -17.689519 6.430760 -0.000006 0.000004 -13.864098 4073.099929 -156.302404 162.074433 -3.155708 -0.765004 6.687795 44.826262 3.161101 3.224604 -3.592903 -0.000006 0.000009 -132.809832 188.321593 219.968769 -0.000001 -0.000005 -10.352400 -298.286819 -16.578112 -350.688277 -0.000007 -0.000006 -12.750296 197.955015 147.832942 -149.647136 2.460602 -0.518098 -2.735501 -442.066017 48.011917 36.235499 0.000000 -0.000006 -17.005892 155.725472 189.045525 -72.052028 -0.000000 -0.000001 -19.194399 632.266677 167.114088 249.420887 -3.115495 -0.679596 -2.320301 -362.849975 23.300729 -1.017121 -0.000002 0.000003 -17.680395 -478.201105 154.223786 -198.859769 -0.000001 0.000000 -16.993795 1044.932282 20.302707 -360.397445
-26.563599 13.107792 44.775688 2454.745290 -25.300585 -3.989123 -0.201601 0.334095 6.453208 17.696086 16.646202 6.440523 -0.000002 0.000005 3.567999 -5.106527 4.095490 -0.116524 0.000000 0.000005 8.296392 230.479816 -179.800563 165.527025 -0.000003 0.000001 2.173910 2.649136 2.821061 3.245977 1.927599 0.221399 6.048996 -18.830427 0.036635 -5.074444 4.959702 -0.000002 -0.000001 128.601438 196.532956 135.253687 0.000003 0.000006 -8.654202 -34.599034 -17.681466 6.427980 -0.000007 0.000001 -13.864100 4073.065395 -156.322376 162.027879 -3.155706 -0.764999 6.687798 44.824944 3.204678 3.158911 -3.592899 -0.000005 -0.000001 -132.826129 188.283057 220.047426 0.000003 -0.000002 -10.352399 -298.433259 -16.635361 -350.734121 -0.000007 -0.000002 -12.750299 198.006105 147.819255 -149.604775 2.460596 -0.518101 -2.735499 -441.980202 48.008372 36.083609 0.000001 -0.000005 -17.005898 155.657265 188.863378 -72.101731 -0.000004 -0.000002 -19.194403 632.080841 167.112230 249.327914 -3.115502 -0.679596 -2.320298 -362.872432 23.233971 -1.043917 -0.000005 -0.000003 -17.680399 -478.378253 154.212721 -198.815264 0.000005 0.000003 -16.993797 1044.957307 20.282457 -360.354852
-26.537102 13.106300 44.775093 2454.926262 -25.248750 -3.961368 -0.201598 0.334099 6.453208 17.513220 16.637154 6.511726 -0.000004 0.000001 3.567987 -5.075022 4.061452 -0.116095 0.000000 0.000003 8.296401 230.426540 -179.756208 165.494500 -0.000001 0.000000 2.173906 2.637063 2.817273 3.265125 1.927600 0.221403 6.048999 -18.876751 0.088306 -5.031130 4.959701 -0.000001 -0.000002 128.602545 196.507370 135.175249 0.000002 0.000010 -8.654202 -34.566734 -17.665588 6.450165 -0.000006 -0.000001 -13.864101 4072.997640 -156.328974 162.019286 -3.155707 -0.765002 6.687801 44.844768 3.258806 3.035746 -3.592899 -0.000009 0.000009 -132.828219 188.211477 220.181188 -0.000001 -0.000003 -10.352400 -298.591009 -16.686017 -350.783708 -0.000005 0.000004 -12.750297 198.043411 147.815744 -149.577058 2.460600 -0.518095 -2.735490 -441.999382 47.980187 36.020560 -0.000002 -0.000005 -17.005898 155.710705 188.834759 -72.187901 -0.000002 0.000001 -19.194397 632.011775 167.098133 249.300402 -3.115496 -0.679597 -2.320296 -362.894999 23.158641 -1.064453 -0.000007 -0.000005 -17.680397 -478.539610 154.221983 -198.779460 0.000001 -0.000002 -16.993797 1044.928129 20.284221 -360.230269
-26.512098 13.105898 44.773098 2455.092810 -25.188879 -3.937920 -0.201598 0.334096 6.453199 17.325460 16.614136 6.605712 -0.000001 0.000004 3.568000 -5.039267 4.034385 -0.114208 0.000002 0.000005 8.296393 230.386433 -179.697113 165.448205 0.000000 -0.000001 2.173909 2.631435 2.829522 3.288691 1.927598 0.221403 6.048992 -18.910530 0.146907 -5.027793 4.959701 -0.000008 0.000009 128.627270 196.520716 135.117384 -0.000001 -0.000005 -8.654196 -34.446649 -17.639641 6.501064 0.000001 -0.000006 -13.864098 4072.880488 -156.314808 162.054899 -3.155710 -0.765001 6.687795 44.868462 3.299460 2.882041 -3.592897 -0.000008 -0.000004 -132.795789 188.107194 220.335318 0.000009 -0.000009 -10.352397 -298.737011 -16.724039 -350.821329 -0.000005 0.000004 -12.750306 198.045447 147.823271 -149.558467 2.460600 -0.518103 -2.735507 -442.126532 47.924675 36.048229 -0.000002 -0.000007 -17.005899 155.883072 188.970707 -72.303618 -0.000002 0.000002 -19.194401 632.008114 166.805569 247.982804 -3.115497 -0.679597 -2.320308 -362.923577 23.076202 -1.082560 -0.000002 -0.000001 -17.680401 -478.683208 154.237023 -198.746798 0.000002 0.000002 -16.993799 1044.857969 20.300364 -360.042931
-26.488102 13.106899 44.769897 2455.264384 -25.118331 -3.916083 -0.201596 0.334099 6.453196 17.104202 16.576275 6.728489 -0.000003 0.000004 3.567994 -4.992023 4.015367 -0.110080 0.000007 0.000003 8.296398 230.358921 -179.624276 165.390831 0.000001 -0.000001 2.173901 2.632275 2.856170 3.317857 1.927602 0.221402 6.049000 -18.930974 0.195183 -5.069807 4.959699 -0.000009 0.000000 128.682075 196.572025 135.099257 0.000003 0.000005 -8.654202 -34.250527 -17.606703 6.578710 -0.000010 -0.000003 -13.864103 4072.710444 -156.277447 162.139197 -3.155704 -0.765008 6.687796 44.879493 3.312049 2.729739 -3.592901 -0.000005 0.000004 -132.712693 187.975521 220.478069 0.000001 -0.000006 -10.352402 -298.866511 -16.746944 -350.836792 -0.000007 0.000001 -12.750302 197.998687 147.843283 -149.547415 2.460602 -0.518096 -2.735501 -442.311412 47.847442 36.114547 0.000001 -0.000006 -17.005898 156.109137 189.202114 -72.431137 -0.000010 0.000002 -19.194401 632.147559 166.808642 248.160498 -3.115495 -0.679591 -2.320304 -362.974995 22.981363 -1.101146 0.000000 -0.000003 -17.680401 -478.811724 154.238075 -198.709970 0.000003 0.000004 -16.993797 1044.780160 20.312942 -359.844637
